<svg xmlns="http://www.w3.org/2000/svg" width="50" height="50" viewBox="0 0 50 50">
  <g id="MonoAndroid" transform="translate(-2 -2)">
    <path id="Path_1187" data-name="Path 1187" d="M10.526,15.892a1.745,1.745,0,1,0,1.745-1.745A1.745,1.745,0,0,0,10.526,15.892Z" transform="translate(6.527 9.299)" fill="#222e30"/>
    <path id="Path_1188" data-name="Path 1188" d="M21.339,17.637a1.745,1.745,0,1,1,1.745-1.745A1.745,1.745,0,0,1,21.339,17.637Z" transform="translate(13.469 9.299)" fill="#222e30"/>
    <path id="Path_1189" data-name="Path 1189" d="M16.941,24.277a1.847,1.847,0,0,0-1.8-1.921,1.8,1.8,0,0,0-1.772,1.908A1.826,1.826,0,0,0,15.146,26.2,1.863,1.863,0,0,0,16.941,24.277Z" transform="translate(8.699 15.538)" fill="#222e30"/>
    <path id="Path_1190" data-name="Path 1190" d="M8.424,22.355a1.925,1.925,0,0,1,0,3.842,1.826,1.826,0,0,1-1.775-1.934A1.8,1.8,0,0,1,8.424,22.355Z" transform="translate(3.559 15.538)" fill="#222e30"/>
    <path id="Path_1191" data-name="Path 1191" d="M27.058,24.277a1.847,1.847,0,0,0-1.8-1.921,1.8,1.8,0,0,0-1.772,1.908A1.826,1.826,0,0,0,25.263,26.2,1.863,1.863,0,0,0,27.058,24.277Z" transform="translate(16.439 15.538)" fill="#222e30"/>
    <path id="Path_1192" data-name="Path 1192" d="M20.634,22.367a1.822,1.822,0,0,1,1.811,1.891,1.809,1.809,0,1,1-3.614.018A1.819,1.819,0,0,1,20.634,22.367Z" transform="translate(12.871 15.552)" fill="#222e30"/>
    <path id="Path_1193" data-name="Path 1193" d="M43.071,2H10.929A8.929,8.929,0,0,0,2,10.929V43.071A8.929,8.929,0,0,0,10.929,52H43.071A8.929,8.929,0,0,0,52,43.071V10.929A8.929,8.929,0,0,0,43.071,2ZM38.334,12.713l-2.926,5.069A17.467,17.467,0,0,1,44.44,31.6H9.164a17.471,17.471,0,0,1,9.028-13.821l-2.926-5.069a.593.593,0,0,1,1.025-.6l2.965,5.134a18.5,18.5,0,0,1,15.092,0l2.965-5.134a.587.587,0,0,1,.806-.215A.6.6,0,0,1,38.334,12.713Zm.158,22.846a.756.756,0,1,1-.756-.756A.756.756,0,0,1,38.492,35.558Zm-17.35,4.419A2.525,2.525,0,0,1,23.6,37.3a1.982,1.982,0,0,1,1.628.766V34.86h1.144v7.676h-.814a.347.347,0,0,1-.329-.329v-.33a1.979,1.979,0,0,1-1.628.756A2.506,2.506,0,0,1,21.142,39.978Zm-5.176,2.559a.32.32,0,0,1-.33-.329V37.419H16.78v.633a1.784,1.784,0,0,1,1.543-.751A1.911,1.911,0,0,1,20.27,39.26v3.276h-.795a.35.35,0,0,1-.349-.349V39.512a1.085,1.085,0,0,0-1.065-1.162,1.383,1.383,0,0,0-1.28,1.472v2.714ZM11.6,37.3a2.674,2.674,0,0,0,0,5.331,1.979,1.979,0,0,0,1.628-.756v.33a.347.347,0,0,0,.33.329h.814V37.419H13.233v.649A1.982,1.982,0,0,0,11.6,37.3Zm16.361,5.234a.32.32,0,0,1-.329-.329V37.419h1.144v.853a1.41,1.41,0,0,1,1.376-.911,2.386,2.386,0,0,1,.407.039v1.182a1.645,1.645,0,0,0-.543-.1,1.352,1.352,0,0,0-1.241,1.472v2.579Zm9.537,0a.32.32,0,0,1-.33-.329V37.419h1.144v5.118Zm1.706-2.559A2.525,2.525,0,0,1,41.67,37.3a1.982,1.982,0,0,1,1.628.766V34.86h1.144v7.676h-.814a.347.347,0,0,1-.329-.329v-.33a1.979,1.979,0,0,1-1.628.756A2.506,2.506,0,0,1,39.209,39.978ZM33.579,37.3a2.634,2.634,0,0,0-2.668,2.668,2.6,2.6,0,0,0,2.665,2.665,2.667,2.667,0,1,0,0-5.333Z" transform="translate(0 0)" fill="#222e30" fill-rule="evenodd"/>
  </g>
</svg>
