<svg xmlns="http://www.w3.org/2000/svg" width="18.4" height="19.6" viewBox="0 0 18.4 19.6">
  <path id="attachment" d="M5.6,19.8a4.777,4.777,0,0,1-3.378-1.44,4.911,4.911,0,0,1,.209-7.116l9.748-9.87A3.5,3.5,0,0,1,15.629.314a3.566,3.566,0,0,1,2.468,2.5A3.608,3.608,0,0,1,17.051,6.3l-9.323,9.44a2.921,2.921,0,0,1-1.738.922,1.9,1.9,0,0,1-1.57-.535c-.724-.736-.828-2.117.378-3.337l6.548-6.63a.683.683,0,0,1,.974,0,.7.7,0,0,1,0,.986L5.771,13.782c-.566.572-.618,1.119-.377,1.364a.537.537,0,0,0,.451.134,1.619,1.619,0,0,0,.909-.521L16.077,5.32a2.208,2.208,0,0,0,.69-2.145,2.066,2.066,0,0,0-3.613-.813l-9.748,9.87A3.513,3.513,0,0,0,3.2,17.375a3.41,3.41,0,0,0,5.079-.212l9.748-9.87a.683.683,0,0,1,.974,0,.7.7,0,0,1,0,.987L9.25,18.15A5.1,5.1,0,0,1,5.6,19.8Z" transform="translate(-0.8 -0.2)" fill="#fff"/>
</svg>
