<svg xmlns="http://www.w3.org/2000/svg" width="50.593" height="50.589" viewBox="0 0 50.593 50.589">
  <g id="MonoChrome" transform="translate(-2 -2.001)">
    <path id="Path_1200" data-name="Path 1200" d="M46.636,14.4a.415.415,0,0,1-.357.627h-20.3l-.036,0c-.362-.031-.722-.047-1.071-.047A12.318,12.318,0,0,0,12.943,24.22a.415.415,0,0,1-.346.307.422.422,0,0,1-.056,0,.414.414,0,0,1-.359-.207L5.061,11.99a.414.414,0,0,1,.035-.466A25.3,25.3,0,0,1,37.574,5.418,25.452,25.452,0,0,1,46.636,14.4Z" transform="translate(2.425)" fill="#222e3a"/>
    <path id="Path_1201" data-name="Path 1201" d="M20.222,29.676a9.454,9.454,0,1,1,9.454-9.454A9.464,9.464,0,0,1,20.222,29.676Z" transform="translate(7.075 7.075)" fill="#222e3a"/>
    <path id="Path_1202" data-name="Path 1202" d="M31.035,33.648A.414.414,0,0,0,30.6,33.5a12.318,12.318,0,0,1-14.455-6.649l-.016-.031L5.966,9.227a.414.414,0,0,0-.359-.207h0a.415.415,0,0,0-.359.211A25.3,25.3,0,0,0,23.522,46.65a.394.394,0,0,0,.062,0,.415.415,0,0,0,.359-.207l7.123-12.338A.415.415,0,0,0,31.035,33.648Z" transform="translate(0 5.664)" fill="#222e3a"/>
    <path id="Path_1203" data-name="Path 1203" d="M24.967,10.742H39.228a.414.414,0,0,1,.386.263A25.3,25.3,0,0,1,16.346,45.537h0a.415.415,0,0,1-.359-.622L26.158,27.29l.018-.03a12.292,12.292,0,0,0-1.5-15.808.415.415,0,0,1,.29-.711Z" transform="translate(11.237 7.053)" fill="#222e3a"/>
  </g>
</svg>
