<svg xmlns="http://www.w3.org/2000/svg" width="40.006" height="28.451" viewBox="0 0 40.006 28.451">
  <path id="email_2_" data-name="email (2)" d="M41.915,6.935a1.429,1.429,0,0,0-.129-.257,1.343,1.343,0,0,0-.071-.157h0a2.286,2.286,0,0,0-.443-.343l-.243-.086H3.344a1.429,1.429,0,0,0-.3,0L2.8,6.178a1.428,1.428,0,0,0-.214.143,1.429,1.429,0,0,0-.214.186h0a1.329,1.329,0,0,0-.071.157,1.129,1.129,0,0,0-.3.557,1.329,1.329,0,0,0,0,.171V33.107a1.429,1.429,0,0,0,1.429,1.429H40.572A1.429,1.429,0,0,0,42,33.107V7.392a1.329,1.329,0,0,0,0-.171,1.428,1.428,0,0,0-.086-.286ZM36.372,8.821,22,19.878,7.629,8.821Zm2.771,22.857H4.858V10.25L21.129,22.764a1.429,1.429,0,0,0,1.743,0L39.144,10.25Z" transform="translate(-1.998 -6.084)" fill="#fff"/>
</svg>
