<svg xmlns="http://www.w3.org/2000/svg" width="14.695" height="14.695" viewBox="0 0 14.695 14.695">
  <path id="earth" d="M9.847,2.5a7.347,7.347,0,1,0,7.347,7.347A7.352,7.352,0,0,0,9.847,2.5Zm0,.544a6.77,6.77,0,0,1,2.907.658c-.637.128-1.179.408-1.309.379a5.282,5.282,0,0,0-1.514.255c-.353.133-.32.3-.408.323s-.136.1-.272.255.068.34.068.34.524.118.612-.272c.052-.232-.022.2,0,.374s.351.221.527,0c.08-.1.068-.342.119-.425.062-.1.2-.024.272-.034.044-.005-.056.069,0,.1.113.067.345-.047.289.221-.022.108-.364.13-.408.289a.8.8,0,0,1-.119.255l-.731.017-.238-.34s-.232.1-.17.306a.427.427,0,0,1-.068.306s-.374.06-.374.17c0,.061-.153.068-.238.1-.07.028-.118.143-.187.153l-.357.051c-.155.019-.085.055-.085.119,0,.088.289.1.289.1s.185.072.119.2.047.187-.085.187c-.057,0-.191-.018-.323-.017-.171,0-.336-.054-.34.017-.016.272-.017.663-.017.663a.748.748,0,0,0,.357.085c.173-.04.426.1.544-.221a.423.423,0,0,1,.034-.1c.082-.107.171-.324.306-.391a.517.517,0,0,1,.238-.017.655.655,0,0,0,.238-.119.619.619,0,0,1,.493.442c.03.115,0,.3.068.34.04.022.221-.17.221-.17l.2.017L10.392,7.4l-.374-.425.068-.033s.284.019.306.085.364.234.306.425c-.1.316.136.391.136.391a.266.266,0,0,0,.289-.119.753.753,0,0,0,.085-.272l.255-.052s-.024-.53.255-.544a1.18,1.18,0,0,1,.306,0s.614.2.68.357.1.3-.1.323a2.577,2.577,0,0,1-.493-.016s-.781-.118-.714.1.136.442.136.442a1.169,1.169,0,0,1,.323.016,1.392,1.392,0,0,0,.374.017l.034.374-.1.034c-.111.031-.439.052-.527.085s-1.049-.135-1.072-.1a.845.845,0,0,1-.51.1c-.177-.044-.221-.459-.221-.459s-.032-.2-.153-.187l-.952.085s-.272.121-.272.187a.185.185,0,0,0-.187,0c-.11.055-.279.048-.323.136s-.218.254-.306.408-.342.166-.408.442a4.307,4.307,0,0,0-.1.935c.011.2.006.691.2.8a3.126,3.126,0,0,1,.561.476,1.274,1.274,0,0,0,.7.136,1.135,1.135,0,0,1,.425-.136,1.007,1.007,0,0,1,.459.085,1.046,1.046,0,0,1,.238.374c.066.165.132.445.187.544s.265.288.187.476a1.262,1.262,0,0,0-.187.6,2.124,2.124,0,0,0,.2.612c.05.1.368.411.357.51s.083.075.2.119a1.33,1.33,0,0,0,.714-.187,5.139,5.139,0,0,1,.34-.51c.143-.144.441-.379.6-.544a.9.9,0,0,0,.323-.527c.011-.21-.11-.671,0-.748a1.749,1.749,0,0,0,.374-.34c.11-.143.345-.132.51-.6s.22-.607.187-.629a.62.62,0,0,0-.34.153c-.044.066-.3.083-.357.136s-.306,0-.306,0a1.522,1.522,0,0,0,.051-.561c-.055-.143-.337-.7-.425-.9A.765.765,0,0,1,12.28,9a.565.565,0,0,1,.034.051,2.8,2.8,0,0,1,.34.578,7.037,7.037,0,0,0,.408.952,1.357,1.357,0,0,0,.765-.357c.325-.25.673-.263.731-.391.11-.243-.34-.459-.34-.459H13.81L13.5,8.844l.085-.034s.339.391.493.391.565-.035.7.119.546.415.612.68.033.634.153.765a.43.43,0,0,0,.323.17l.2-.476.476-.544.1-.051A6.8,6.8,0,0,1,5.238,14.842l.2-.3.238-.952L5.1,13.232l-.663-.221L4,11.939a4.352,4.352,0,0,0-.755-.488,6.525,6.525,0,0,1-.089-2.779,5.958,5.958,0,0,1,.98-.577s.31-.035-.221-.918a1.333,1.333,0,0,1-.151-.357,6.8,6.8,0,0,1,.8-1.256c-.027.161-.133.832.064.95.22.132.432-.276.476-.408s.5-.637.68-.9a.83.83,0,0,0-.048-.77A6.767,6.767,0,0,1,9.847,3.044ZM8.5,4.269c-.106.01-.323.067-.323.238V4.83a1.063,1.063,0,0,1-.1.153c-.037.037,0,.206.017.272a1.784,1.784,0,0,1,.034.272.913.913,0,0,1,.136.085.553.553,0,0,0,.391.034c.11-.059.174-.214.255-.221s.032-.007.017-.068A.909.909,0,0,1,9,5.085L8.776,4.9a1.237,1.237,0,0,1-.119-.374c.014-.088-.109-.244-.1-.255S8.539,4.263,8.5,4.269Zm-.578.646c-.03.013-.088.085-.119.1s-.029.094-.051.153-.085.272-.085.272l.136.051s.216-.041.238-.085A1.1,1.1,0,0,0,7.977,5.1a.06.06,0,0,1,0-.034l-.034-.136C7.937,4.921,7.936,4.91,7.926,4.915Zm5.7,1.871a.445.445,0,0,1,.17.051,1.057,1.057,0,0,1,0,.442.248.248,0,0,0,.136.272c.044.015.076.369.068.442s-.215.129-.272.136-.3.005-.289-.1a2.6,2.6,0,0,0-.085-.6c-.044-.14-.032-.337.034-.374a1.2,1.2,0,0,0,.2-.255C13.595,6.791,13.606,6.787,13.623,6.786Zm-.306,6.021a.374.374,0,0,0-.1.017s-.016.326-.17.425a.578.578,0,0,0-.255.391.85.85,0,0,0,0,.289c.033.1.108.181.2.17s.2-.218.221-.306a.955.955,0,0,1,.17-.34.462.462,0,0,0,.068-.323C13.444,13.053,13.5,12.8,13.317,12.807Z" transform="translate(-2.5 -2.5)" fill="#1f1f20"/>
</svg>
