<svg xmlns="http://www.w3.org/2000/svg" width="51" height="51" viewBox="0 0 52.471 52.474">
  <g id="Microsoft-Edge-extension" transform="translate(-27 -27)">
    <path id="Path_1208" data-name="Path 1208" d="M71.957,61.958a19.227,19.227,0,0,1-2.16.965,20.877,20.877,0,0,1-7.358,1.324c-9.7,0-18.147-6.671-18.147-15.232a6.452,6.452,0,0,1,3.367-5.6c-8.772.369-11.027,9.51-11.027,14.865,0,15.142,13.955,16.677,16.962,16.677a21.858,21.858,0,0,0,5.534-.935l.268-.09a26.3,26.3,0,0,0,13.65-10.822.82.82,0,0,0-1.09-1.156Z" transform="translate(2.402 4.094)" fill="#222e3a"/>
    <path id="Path_1209" data-name="Path 1209" d="M48.665,74.51A16.232,16.232,0,0,1,44,70.137a16.544,16.544,0,0,1,6.052-24.594,6.851,6.851,0,0,1,3.185-.82,6.631,6.631,0,0,1,5.265,2.664,6.535,6.535,0,0,1,1.3,3.824c0-.043,5.013-16.314-16.4-16.314-9,0-16.4,8.538-16.4,16.029A26.675,26.675,0,0,0,29.5,62.4,26.234,26.234,0,0,0,61.551,76.158a15.484,15.484,0,0,1-12.867-1.64Z" transform="translate(0.004 1.969)" fill="#222e3a"/>
    <path id="Path_1210" data-name="Path 1210" d="M58.221,57.509c-.166.215-.676.512-.676,1.16a1.907,1.907,0,0,0,.967,1.482c2.947,2.05,8.5,1.779,8.518,1.779a12.206,12.206,0,0,0,6.2-1.711A12.58,12.58,0,0,0,79.47,49.381a18.136,18.136,0,0,0-2.324-9C72.8,31.886,63.428,27,53.234,27A26.234,26.234,0,0,0,27,52.865c.1-7.489,7.542-13.537,16.4-13.537A19.829,19.829,0,0,1,52,41.392a14.874,14.874,0,0,1,6.323,5.987,13.184,13.184,0,0,1,1.492,6.05A7.4,7.4,0,0,1,58.221,57.509Z" transform="translate(0 0)" fill="#222e3a"/>
  </g>
</svg>
