<svg xmlns="http://www.w3.org/2000/svg" width="17.289" height="17.288" viewBox="0 0 17.289 17.288">
  <g id="eye_1_" data-name="eye (1)" transform="translate(0.707 0.707)">
    <path id="Path_1232" data-name="Path 1232" d="M12.223,12.223A7.266,7.266,0,0,1,7.937,13.71C2.886,13.71,0,7.937,0,7.937A13.313,13.313,0,0,1,3.651,3.651M6.422,2.338a6.581,6.581,0,0,1,1.515-.173c5.051,0,7.937,5.772,7.937,5.772a13.349,13.349,0,0,1-1.559,2.3M9.467,9.467A2.165,2.165,0,1,1,6.407,6.407M0,0,15.874,15.874" fill="none" stroke="#000" stroke-linecap="round" stroke-linejoin="round" stroke-width="1" fill-rule="evenodd"/>
  </g>
</svg>
