<svg xmlns="http://www.w3.org/2000/svg" width="17" height="20" viewBox="0 0 16.388 19.12">
  <path id="file" d="M143.663,4.054a2.483,2.483,0,0,1,.512.811,2.463,2.463,0,0,1,.213.939V18.1a1.02,1.02,0,0,1-1.024,1.024h-14.34A1.02,1.02,0,0,1,128,18.1V1.024A.988.988,0,0,1,128.3.3a.988.988,0,0,1,.726-.3h9.56a2.463,2.463,0,0,1,.939.213,2.482,2.482,0,0,1,.811.512Zm-4.737-2.6V5.463h4.012a1.165,1.165,0,0,0-.235-.437l-3.34-3.34A1.165,1.165,0,0,0,138.925,1.451Zm4.1,16.3V6.828h-4.438A1.02,1.02,0,0,1,137.56,5.8V1.366h-8.194V17.754ZM132.1,8.536a.329.329,0,0,1,.341-.341h7.511a.329.329,0,0,1,.341.341v.683a.329.329,0,0,1-.341.341h-7.511a.329.329,0,0,1-.341-.341Zm7.853,2.39a.329.329,0,0,1,.341.341v.683a.329.329,0,0,1-.341.341h-7.511a.329.329,0,0,1-.341-.341v-.683a.329.329,0,0,1,.341-.341Zm0,2.731a.329.329,0,0,1,.341.341v.683a.329.329,0,0,1-.341.341h-7.511a.329.329,0,0,1-.341-.341V14a.329.329,0,0,1,.341-.341Z" transform="translate(-128)"/>
</svg>
