<svg xmlns="http://www.w3.org/2000/svg" width="50" height="49.881" viewBox="0 0 50 49.881">
  <path id="MonoFirefox" d="M46.967,11.8a24.957,24.957,0,0,0-2.359-2.678,19.982,19.982,0,0,0-2.352-2.065A16.27,16.27,0,0,0,38.193,4.55a24.008,24.008,0,0,0-10.2-2.532A21.935,21.935,0,0,0,15.911,5.041a12.326,12.326,0,0,0-2.225,1.686c.08-.067.32-.264.718-.536q-.358.251-.7.524A20.964,20.964,0,0,1,26.817,4.26c8.836,1.157,16.918,8.017,16.918,17.068,0,6.964-5.395,12.28-11.711,11.9-9.384-.564-11.748-10.164-6.868-14.312-1.316-.283-3.79.271-5.513,2.84-1.545,2.305-1.458,5.867-.5,8.393A13.489,13.489,0,0,1,17.911,26.2c-1.235-8.324,4.368-15.423,9.506-17.18C24.645,6.6,17.7,6.769,12.53,10.563a17.363,17.363,0,0,0-6.306,9.1,23.993,23.993,0,0,1,2.6-8.452c-1.73.893-3.934,3.719-5.022,6.336A25.738,25.738,0,0,0,2.179,30.13q.016.138.031.275c.026.231.052.461.082.691A25.035,25.035,0,1,0,46.967,11.8ZM19.284,3.912a16.671,16.671,0,0,0-4.8,2.226A18.067,18.067,0,0,1,19.284,3.912ZM14.478,6.14l-.011.008ZM34.112,37.946q-.677.1-1.368.131a13.934,13.934,0,0,1-13.39-7.493,13.825,13.825,0,0,0,13.39,7.493Q33.445,38.034,34.112,37.946ZM27.185,2.337A24.381,24.381,0,0,0,15.937,5.026,23.419,23.419,0,0,1,27.185,2.337Z" transform="translate(-2.002 -2.012)" fill="#222e3a" fill-rule="evenodd"/>
</svg>
