<svg xmlns="http://www.w3.org/2000/svg" width="50" height="50" viewBox="0 0 50 50">
  <path id="MonoIos" d="M43.071,2H10.929A8.929,8.929,0,0,0,2,10.929V43.071A8.929,8.929,0,0,0,10.929,52H43.071A8.929,8.929,0,0,0,52,43.071V10.929A8.929,8.929,0,0,0,43.071,2ZM30.918,17.294a6.243,6.243,0,0,0,1.517-4.58,6.831,6.831,0,0,0-4.365,2.178,5.948,5.948,0,0,0-1.556,4.41A5.66,5.66,0,0,0,30.918,17.294Zm3.717,10.614a6.45,6.45,0,0,1,3.207-5.448,6.963,6.963,0,0,0-5.431-2.831,8.667,8.667,0,0,0-3.89.812,5.884,5.884,0,0,1-1.774.506,5.776,5.776,0,0,1-1.846-.516,8.182,8.182,0,0,0-3.064-.741A7.271,7.271,0,0,0,15.75,23.27c-2.632,4.393-.669,10.85,1.852,14.4,1.261,1.739,2.735,3.681,4.664,3.613a5.907,5.907,0,0,0,2.137-.547,6.56,6.56,0,0,1,2.734-.613,6.185,6.185,0,0,1,2.6.593,5.218,5.218,0,0,0,2.291.524c2.025-.032,3.3-1.747,4.518-3.5a14.183,14.183,0,0,0,2.066-4.057A6.275,6.275,0,0,1,34.635,27.909Z" transform="translate(-2 -2)" fill="#222e3a" fill-rule="evenodd"/>
</svg>
