<svg xmlns="http://www.w3.org/2000/svg" width="50" height="52" viewBox="0 0 50 58.333">
  <path id="MonoLinux" d="M25.54,15.376c-.633.067-.414.644-.767.657S24.5,15.3,25.54,15.376Zm1.908.1c.616-.157.619.458.955.346S28.4,15.036,27.448,15.472ZM48.672,55.762a27.9,27.9,0,0,0-5.312,3.931c-.682.648-3.541.969-5.129.158-1.882-.961-.884-2.462-3.79-2.532-1.444-.034-2.849-.046-4.257-.029-1.245.017-2.49.054-3.759.12-4.364.038-4.791,2.869-7.57,2.765-1.9-.07-4.3-1.559-8.427-2.416-2.9-.6-5.68-.741-6.275-2.013s.734-2.69.822-3.953c.109-1.648-1.258-3.889-.248-4.757.834-.719,2.662-.191,3.84-.844a2.681,2.681,0,0,0,1.756-2.778,2.863,2.863,0,0,1-1.057,3.455,4.961,4.961,0,0,1-2.7.47c-.746-.07-1.207.05-1.434.332-.289.366-.2,1.006.168,1.859a4.769,4.769,0,0,1,.747,2.436c-.059,1.044-1.216,2.284-1.031,3.161.072.337.406.618,1.207.843,1.329.371,3.7.706,6.04,1.272,2.6.633,5.287,1.826,6.957,1.6,4.991-.689,2.145-6,1.337-7.262-4.213-6.579-7-10.886-9.229-9.177-.582.445-.6-1.119-.579-1.722.1-2.162,1.2-2.919,1.861-4.6,1.232-3.152,2.192-6.762,4.1-8.629,1.418-1.8,3.631-4.764,4.055-6.328-.356-3.4-.466-6.981-.521-10.116-.054-3.335.479-6.261,4.275-8.308A7.444,7.444,0,0,1,27.917,2a11.2,11.2,0,0,1,6.4,1.789A11.156,11.156,0,0,1,38.3,12.563a19.668,19.668,0,0,0,.968,6.935A16.78,16.78,0,0,0,43.641,26.6c2.6,2.736,4.624,8.126,5.194,11.539.537,3.189-.163,5.16-.868,5.259-1.05.154-1.705,3.464-5,3.31-2.1-.1-2.305-1.331-2.887-2.379-.935-1.676-1.887-1.152-2.268.6a7.152,7.152,0,0,0,.235,3.172,14.386,14.386,0,0,1,.035,6.328c-.672,4.508,3.175,5.361,5.77,3.218a14.68,14.68,0,0,1,6.349-3.55c4.886-1.66,3.245-3.128.617-4-2.356-.786-2.453-4.735-1.609-5.48.188,4.241,2.413,4.856,3.356,5.435C56.613,52.536,51.043,54.578,48.672,55.762ZM37.791,43.34a1.941,1.941,0,0,1,1.66-.6c.105-2.585,4.162-2.395,5.491-1.313,0-.6-1.275-1.136-1.785-1.389.885-2.919.469-4.092-.117-6.848a10.714,10.714,0,0,0-3.89-5.821,11.378,11.378,0,0,1,1.874,2.714c1.32,2.439,2.624,6.043,1.756,9.069a1.683,1.683,0,0,1-1.622,1.36c-2.326.241-.959-2.727-1.925-6.816-1.076-4.545-2.179-4.886-2.456-5.242-1.333-5.913-2.816-5.323-3.235-7.555-.376-1.975,1.736-3.609-1.136-4.162-.875-.171-2.128-1.051-2.628-1.114s-.737-3.26,1.077-3.39,2.162,2.034,1.805,2.886c-.516.844.038,1.16.935.885.734-.224.26-2.121.435-2.4-.473-2.716-1.616-3.107-2.807-3.335-4.519.344-2.49,5.309-2.947,4.831-.64-.674-2.565-.038-2.555-.47.041-2.532-.814-4-1.992-4.03-1.312-.038-1.853,1.785-1.932,2.811-.075.986.591,3.039,1.077,2.882.318-.1.864-.74.28-.737-.3,0-.757-.7-.8-1.552s.269-1.708,1.384-1.663c1.308.05,1.295,2.584,1.152,2.682a5.85,5.85,0,0,0-1.013.94c-.416.691-1.25.861-1.555,1.164-.582.577-.7,1.23-.264,1.48,1.5.852,1.009,1.8,3.1,1.887A9.583,9.583,0,0,0,28.5,20c.729-.219,3.069-.713,3.562-1.566.214-.362.483-.375.662-.271.314.18.382.782-.427,1A31.5,31.5,0,0,0,28.947,20.5a9.563,9.563,0,0,1-2.312.745c-2.173.386-3.776-.778-2.319.619a2.508,2.508,0,0,0,2.2.706c2.736-.108,5.8-3.368,6.106-1.908.063.3-.867.706-1.592,1.064-2.566,1.253-4.372,3.726-6.015,2.87-1.47-.769-2.932-4.387-2.907-2.766.041,2.5-3.321,4.724-1.774,7.568-1,.271-3.286,5.052-3.614,7.542-.179,1.41.136,3.181-.2,4.171-.495,1.43-2.741-1.363-2.024-4.786.129-.6.02-.73-.142-.439-.913,1.6-.411,3.833.309,5.4.315.678,1.053.977,1.6,1.581,1.177,1.305,5.68,4.619,6.5,5.413a2.006,2.006,0,0,1-1.391,3.388c1.078,2.017,2.128,2.208,2.112,5.506,1.219-.65.729-2.07.218-3.007-.356-.64-.823-.931-.721-1.081.076-.113.7-.649,1.081-.229,1.11,1.235,3.207,1.455,5.461,1.177s4.664-1.064,5.78-2.843c.523-.836.9-1.132,1.143-.986s.344.74.318,1.687A11.421,11.421,0,0,1,36,54.907c-.311.99-.407,1.692.565,1.729.289-1.83.8-3.63.943-5.45C37.674,49.115,36.161,45.26,37.791,43.34ZM24,13.938c-.075.408-.045.662.239.662.046,0,.1-.009.114-.113a1.438,1.438,0,0,0-.458-1.448c-.4-.1-.351.47-.142.425C23.877,13.439,24.048,13.647,24,13.938Zm7.428-1.114c-.411.038-.293.241-.089.3.268.079.52.531.578,1.023,0,.045.344-.071.344-.179A1.1,1.1,0,0,0,31.426,12.824Z" transform="translate(-4 -2)" fill="#222e3a"/>
</svg>
