<svg xmlns="http://www.w3.org/2000/svg" viewBox="0 0 454.21 130"><defs><style>.cls-1{fill:#fff;}.cls-2{fill:#f7a100;}</style></defs><title>Asset 3</title><g id="Layer_2" data-name="Layer 2"><g id="Layer_1-2" data-name="Layer 1"><text/><path class="cls-1" d="M50.9,25.73V80.66H43.81V25.73Z"/><path class="cls-1" d="M63.86,51.89c0-4.07-.08-7.41-.33-10.67h6.36l.41,6.52h.16a14.51,14.51,0,0,1,13-7.42c5.46,0,13.94,3.26,13.94,16.79V80.66H90.26V57.93c0-6.36-2.36-11.66-9.12-11.66A10.53,10.53,0,0,0,71,57V80.66H63.86Z"/><path class="cls-1" d="M117.4,29.89V41.22h10.27v5.46H117.4V68c0,4.89,1.39,7.66,5.38,7.66a15.73,15.73,0,0,0,4.16-.49l.33,5.38a17.6,17.6,0,0,1-6.36,1c-3.34,0-6-1.06-7.74-3-2-2.12-2.77-5.62-2.77-10.27V46.68h-6.12V41.22h6.12V31.77Z"/><path class="cls-1" d="M171,60.62c0,14.58-10.11,20.94-19.64,20.94-10.68,0-18.91-7.82-18.91-20.29,0-13.21,8.64-21,19.56-21C163.29,40.32,171,48.55,171,60.62Zm-31.3.4c0,8.64,5,15.16,12,15.16,6.85,0,12-6.44,12-15.32,0-6.68-3.34-15.16-11.81-15.16S139.65,53.52,139.65,61Z"/><path class="cls-1" d="M45.1,129.63l-7.35-22.51h3.14l3.51,11.09c1,3,1.8,5.78,2.4,8.41h.07c.63-2.6,1.57-5.44,2.57-8.38l3.81-11.12h3.1l-8,22.51Z"/><path class="cls-1" d="M58.79,107.38a34.16,34.16,0,0,1,5.58-.43c2.87,0,5,.67,6.31,1.87a6,6,0,0,1,2,4.71,6.61,6.61,0,0,1-1.74,4.81A9.3,9.3,0,0,1,64,120.81a9.73,9.73,0,0,1-2.33-.2v9H58.79Zm2.91,10.86a9.55,9.55,0,0,0,2.4.23c3.51,0,5.64-1.7,5.64-4.81s-2.1-4.4-5.31-4.4a12.37,12.37,0,0,0-2.73.23Z"/><path class="cls-1" d="M76.56,129.63V107.12h3.17l7.21,11.39a62.83,62.83,0,0,1,4,7.31l.07,0c-.27-3-.33-5.75-.33-9.25v-9.42h2.74v22.51H90.52l-7.15-11.42a72.63,72.63,0,0,1-4.21-7.52l-.1,0c.17,2.83.23,5.54.23,9.28v9.62Z"/><path class="cls-1" d="M105.81,129.63V115.7h-2.27v-2.24h2.27v-.76c0-2.28.5-4.35,1.87-5.65a5.61,5.61,0,0,1,3.94-1.5,6.6,6.6,0,0,1,2.5.47l-.4,2.27a4.36,4.36,0,0,0-1.87-.37c-2.5,0-3.14,2.2-3.14,4.68v.86h3.91v2.24h-3.91v13.93Z"/><path class="cls-1" d="M129.45,121.41c0,6-4.14,8.59-8,8.59-4.37,0-7.74-3.21-7.74-8.32,0-5.41,3.54-8.58,8-8.58C126.31,113.1,129.45,116.47,129.45,121.41Zm-12.82.17c0,3.54,2,6.21,4.91,6.21s4.91-2.63,4.91-6.28c0-2.73-1.37-6.21-4.85-6.21S116.63,118.51,116.63,121.58Z"/><path class="cls-1" d="M133.16,118.51c0-1.91,0-3.54-.14-5.05h2.58l.1,3.18h.13a4.85,4.85,0,0,1,4.48-3.54,3,3,0,0,1,.83.1V116a4.22,4.22,0,0,0-1-.1c-2.07,0-3.54,1.57-3.94,3.77a7.92,7.92,0,0,0-.14,1.37v8.62h-2.9Z"/><path class="cls-1" d="M160.11,129.63l-.24-2h-.1a6,6,0,0,1-4.94,2.41,4.61,4.61,0,0,1-4.94-4.64c0-3.91,3.47-6,9.72-6V119c0-1.34-.37-3.74-3.68-3.74a8.12,8.12,0,0,0-4.21,1.2l-.66-1.94a10,10,0,0,1,5.31-1.43c4.94,0,6.14,3.37,6.14,6.61v6.05a22.73,22.73,0,0,0,.27,3.87Zm-.44-8.25c-3.2-.07-6.84.5-6.84,3.64a2.6,2.6,0,0,0,2.77,2.81,4,4,0,0,0,3.91-2.71,3,3,0,0,0,.16-.93Z"/><path class="cls-1" d="M173.93,126.62a7.71,7.71,0,0,0,3.88,1.17c2.13,0,3.14-1.07,3.14-2.4s-.84-2.17-3-3c-2.91-1-4.28-2.64-4.28-4.58,0-2.61,2.11-4.74,5.58-4.74a8,8,0,0,1,4,1l-.74,2.14a6.26,6.26,0,0,0-3.3-.94c-1.74,0-2.71,1-2.71,2.21s1,1.93,3.07,2.74c2.81,1.06,4.25,2.47,4.25,4.87,0,2.84-2.21,4.84-6,4.84a9.17,9.17,0,0,1-4.54-1.1Z"/><path class="cls-1" d="M196.51,129.63l-.24-2h-.1a6,6,0,0,1-4.94,2.41,4.61,4.61,0,0,1-4.94-4.64c0-3.91,3.47-6,9.72-6V119c0-1.34-.37-3.74-3.68-3.74a8.12,8.12,0,0,0-4.21,1.2l-.66-1.94a10,10,0,0,1,5.31-1.43c4.94,0,6.14,3.37,6.14,6.61v6.05a22.73,22.73,0,0,0,.27,3.87Zm-.44-8.25c-3.2-.07-6.84.5-6.84,3.64a2.6,2.6,0,0,0,2.77,2.81,4,4,0,0,0,3.91-2.71,3,3,0,0,0,.16-.93Z"/><path class="cls-1" d="M204,129.63V115.7h-2.27v-2.24H204v-.76c0-2.28.5-4.35,1.87-5.65a5.64,5.64,0,0,1,3.94-1.5,6.7,6.7,0,0,1,2.51.47l-.4,2.27a4.43,4.43,0,0,0-1.87-.37c-2.51,0-3.14,2.2-3.14,4.68v.86h3.91v2.24h-3.91v13.93Z"/><path class="cls-1" d="M214.61,122.08c.06,4,2.6,5.61,5.54,5.61a10.63,10.63,0,0,0,4.48-.83l.5,2.1a13.1,13.1,0,0,1-5.38,1c-5,0-7.95-3.27-7.95-8.15s2.87-8.71,7.58-8.71c5.28,0,6.68,4.64,6.68,7.61a9.93,9.93,0,0,1-.1,1.37Zm8.61-2.1c0-1.87-.76-4.78-4.07-4.78-3,0-4.28,2.74-4.51,4.78Z"/><path class="cls-1" d="M229.7,118.51c0-1.91,0-3.54-.13-5.05h2.57l.1,3.18h.13a4.86,4.86,0,0,1,4.48-3.54,3,3,0,0,1,.83.1V116a4.22,4.22,0,0,0-1-.1c-2.07,0-3.54,1.57-3.94,3.77a8,8,0,0,0-.13,1.37v8.62H229.7Z"/><path class="cls-1" d="M248.87,113.46l2.14,8.22c.46,1.81.9,3.48,1.2,5.15h.1c.37-1.64.9-3.38,1.44-5.12l2.63-8.25h2.48l2.5,8.09c.6,1.94,1.07,3.64,1.44,5.28h.1a48.09,48.09,0,0,1,1.23-5.25l2.31-8.12h2.9l-5.21,16.17h-2.67L259,121.91a52.35,52.35,0,0,1-1.44-5.31h-.06A49.52,49.52,0,0,1,256,122l-2.61,7.68h-2.67l-4.88-16.17Z"/><path class="cls-1" d="M286.57,121.41c0,6-4.14,8.59-8.05,8.59-4.37,0-7.75-3.21-7.75-8.32,0-5.41,3.54-8.58,8-8.58C283.43,113.1,286.57,116.47,286.57,121.41Zm-12.82.17c0,3.54,2,6.21,4.91,6.21s4.91-2.63,4.91-6.28c0-2.73-1.37-6.21-4.85-6.21S273.75,118.51,273.75,121.58Z"/><path class="cls-1" d="M290.28,118.51c0-1.91,0-3.54-.14-5.05h2.58l.09,3.18H293a4.84,4.84,0,0,1,4.47-3.54,3.07,3.07,0,0,1,.84.1V116a4.22,4.22,0,0,0-1-.1c-2.07,0-3.54,1.57-3.94,3.77a7.92,7.92,0,0,0-.14,1.37v8.62h-2.9Z"/><path class="cls-1" d="M301.33,105.92h2.94v23.71h-2.94Z"/><path class="cls-1" d="M323.17,105.92v19.54c0,1.43,0,3.07.14,4.17h-2.64l-.14-2.8h-.06A6,6,0,0,1,315,130c-3.91,0-6.92-3.31-6.92-8.22,0-5.38,3.31-8.68,7.25-8.68a5.42,5.42,0,0,1,4.88,2.47h.06v-9.65ZM320.23,120a5.2,5.2,0,0,0-.13-1.23,4.32,4.32,0,0,0-4.24-3.41c-3,0-4.85,2.67-4.85,6.25,0,3.27,1.61,6,4.78,6a4.42,4.42,0,0,0,4.31-3.51,5.11,5.11,0,0,0,.13-1.27Z"/><path class="cls-1" d="M327.48,127.93a2,2,0,0,1,2-2.07,1.92,1.92,0,0,1,2,2.07,2,2,0,1,1-3.94,0Zm.83-4.78-.46-16h3.2l-.47,16Z"/><path class="cls-1" d="M199.43,80.66,181.82,25.73h13.61L202.12,49C204,55.48,205.7,61.76,207,68.6h.24c1.39-6.6,3.1-13.12,5-19.39l7-23.48h13.2l-18.5,54.93Z"/><path class="cls-1" d="M238.3,26.47a101.93,101.93,0,0,1,16.79-1.14c7.66,0,13.12,1.46,16.79,4.4a16,16,0,0,1,5.87,12.71c0,5.38-1.79,9.94-5.05,13-4.24,4-10.52,5.79-17.85,5.79a30.11,30.11,0,0,1-4.24-.25V80.66H238.3Zm12.31,24.94a19.33,19.33,0,0,0,4.16.32c6.6,0,10.67-3.34,10.67-9,0-5.06-3.5-8.07-9.7-8.07a20.88,20.88,0,0,0-5.13.49Z"/><path class="cls-1" d="M285.65,80.66V25.73h14.51l11.41,20.13a160.7,160.7,0,0,1,9,18.83h.24a205,205,0,0,1-1.06-22.9V25.73h11.41V80.66h-13L306.35,59.47a205.29,205.29,0,0,1-9.53-19.39l-.24.08c.32,7.25.48,15,.48,24V80.66Z"/><path class="cls-1" d="M451.66,40.09,434,56.87l1.48,5c2.52,28-5.87,40.58-33.35,52.64-34.45-14.06-38.75-31.69-33.47-62.75l33.2-12.1L428,49.62l13-9.2L402.6,25.56,354.29,41.9c0,9,0,19.54,0,30.05,0,25.57,19.63,50.17,44.57,55.7a14.31,14.31,0,0,0,7-.38c27.26-8.22,43.07-30,43.42-58.69.12-9.67,1.56-19.31,2.42-28.5Z"/><polygon class="cls-2" points="454.21 38.3 401.79 98.05 373.62 60.17 402.38 72.08 454.21 38.3"/></g></g></svg>