<svg xmlns="http://www.w3.org/2000/svg" width="50.21" height="50.21" viewBox="0 0 50.21 50.21">
  <g id="MonoMacOs" transform="translate(-3.5 -3)">
    <path id="Path_1198" data-name="Path 1198" d="M22.466,38.754c4.838-.467,9.081-1.74,11.669-3.395l1.528,1.952a33.261,33.261,0,0,1-13.2,3.947A31.961,31.961,0,0,0,25.361,53.21h7.691A9.845,9.845,0,0,0,42.9,43.365V12.845A9.845,9.845,0,0,0,33.052,3H26.186A49.7,49.7,0,0,0,14.659,29.971h9.123A40,40,0,0,0,22.466,38.754ZM26.539,14.27h2.589v5.983H26.539Z" transform="translate(10.813)" fill="#222e3a" fill-rule="evenodd"/>
    <path id="Path_1199" data-name="Path 1199" d="M33.767,3H13.345A9.845,9.845,0,0,0,3.5,12.845v30.52a9.845,9.845,0,0,0,9.845,9.845h19.9a30.26,30.26,0,0,1-2.635-11.886v.1a40.931,40.931,0,0,1-19.52-3.947l1.23-1.952A39.724,39.724,0,0,0,30.6,38.925a44.512,44.512,0,0,1,.638-6.281H22.374A56.064,56.064,0,0,1,33.767,3ZM18.385,14.27H15.8v5.983h2.589Z" fill="#222e3a" fill-rule="evenodd"/>
  </g>
</svg>
