<svg xmlns="http://www.w3.org/2000/svg" width="29.123" height="27.265" viewBox="0 0 29.123 27.265">
  <g id="refresh" transform="translate(-2.25 -3.5)">
    <path id="Path_1230" data-name="Path 1230" d="M15.883,30.765A13.633,13.633,0,1,1,29.515,17.133a1.239,1.239,0,0,1-2.479,0A11.154,11.154,0,1,0,23.77,25.02a1.239,1.239,0,1,1,1.752,1.752,13.729,13.729,0,0,1-9.639,3.993Z" transform="translate(0)" fill="#f7a100"/>
    <path id="Path_1231" data-name="Path 1231" d="M21.259,12.335h5.177a.508.508,0,0,1,.437.77l-2.589,4.349a.508.508,0,0,1-.875,0L20.821,13.1a.511.511,0,0,1,.439-.77Z" transform="translate(4.428 2.114)" fill="#f7a100"/>
  </g>
</svg>
