<svg id="support" xmlns="http://www.w3.org/2000/svg" width="37.125" height="40" viewBox="0 0 37.125 40">
  <path id="Path_1226" data-name="Path 1226" d="M32.952,19.172A1.449,1.449,0,0,1,31.5,17.722V13.63c0-5.8-5.357-10.435-11.942-10.435S7.619,7.891,7.619,13.63v4.093a1.449,1.449,0,1,1-2.9,0V13.63C4.72,6.256,11.387.25,19.561.25S34.4,6.256,34.4,13.63v4.093a1.438,1.438,0,0,1-1.449,1.449Z" transform="translate(-0.975 -0.25)" fill="#fff"/>
  <path id="Path_1227" data-name="Path 1227" d="M29.548,30.614A1.449,1.449,0,0,1,28.1,29.165V15.4A1.449,1.449,0,0,1,29.548,14c5,0,9.067,3.745,9.067,8.336S34.545,30.614,29.548,30.614ZM31,17V27.565A5.635,5.635,0,0,0,35.7,22.29,5.635,5.635,0,0,0,31,17ZM10.557,30.614c-5,0-9.067-3.733-9.067-8.325S5.56,14,10.557,14a1.449,1.449,0,0,1,1.449,1.449V29.165A1.449,1.449,0,0,1,10.557,30.614ZM9.107,17A5.635,5.635,0,0,0,4.4,22.29a5.635,5.635,0,0,0,4.707,5.275Z" transform="translate(-1.49 1.942)" fill="#fff"/>
  <path id="Path_1228" data-name="Path 1228" d="M26.139,33.474h-4.8a1.449,1.449,0,1,1,0-2.9h4.8a2.829,2.829,0,0,0,2.829-2.829v-.638a1.449,1.449,0,1,1,2.9,0v.638a5.728,5.728,0,0,1-5.728,5.728Z" transform="translate(1.443 3.801)" fill="#fff"/>
  <path id="Path_1229" data-name="Path 1229" d="M19.939,35.861H17.075A3.965,3.965,0,0,1,13.11,31.9v-.162a3.965,3.965,0,0,1,3.965-3.954h2.864a3.954,3.954,0,0,1,3.954,3.954V31.9a3.965,3.965,0,0,1-3.954,3.965ZM17.1,30.679a1.067,1.067,0,0,0-1.067,1.055V31.9A1.067,1.067,0,0,0,17.1,32.963h2.841A1.067,1.067,0,0,0,20.994,31.9v-.162a1.055,1.055,0,0,0-1.055-1.055Z" transform="translate(0.362 4.139)" fill="#fff"/>
</svg>
