<svg xmlns="http://www.w3.org/2000/svg" width="30.301" height="21.887" viewBox="0 0 30.301 21.887">
  <g id="Icon_feather-youtube" data-name="Icon feather-youtube" transform="translate(-0.499 -5)">
    <path id="Path_1128" data-name="Path 1128" d="M29.208,9.113a3.576,3.576,0,0,0-2.5-2.573C24.5,6,15.65,6,15.65,6S6.8,6,4.587,6.592a3.576,3.576,0,0,0-2.5,2.573,37.3,37.3,0,0,0-.592,6.8,37.3,37.3,0,0,0,.592,6.856,3.576,3.576,0,0,0,2.5,2.47c2.212.592,11.062.592,11.062.592s8.85,0,11.062-.592a3.576,3.576,0,0,0,2.5-2.573,37.3,37.3,0,0,0,.592-6.753,37.3,37.3,0,0,0-.592-6.856Z" transform="translate(0)" fill="none" stroke="#fff" stroke-linecap="round" stroke-linejoin="round" stroke-width="2"/>
    <path id="Path_1129" data-name="Path 1129" d="M14.625,21.133l7.4-4.206-7.4-4.206Z" transform="translate(-1.87 -0.957)" fill="none" stroke="#fff" stroke-linecap="round" stroke-linejoin="round" stroke-width="2"/>
  </g>
</svg>
